<svg xmlns="http://www.w3.org/2000/svg" xmlns:xlink="http://www.w3.org/1999/xlink" width="600" zoomAndPan="magnify" viewBox="0 0 450 449.999984" height="600" preserveAspectRatio="xMidYMid meet" version="1.0"><path fill="#000000" d="M 21.671875 215.292969 L 19.457031 213.792969 C 13.261719 210.183594 8.195312 204.996094 4.253906 198.226562 C 1.449219 192.910156 0.0625 185.667969 0.0898438 176.5 C 0.285156 163.894531 2.109375 150.457031 5.566406 136.195312 C 9.847656 118.972656 13.992188 106.933594 17.992188 100.0625 C 20.492188 96.066406 21.933594 96.777344 22.316406 102.191406 C 22.488281 102.667969 22.511719 106.269531 22.386719 112.992188 C 21 136.726562 20.417969 150.828125 20.644531 155.289062 C 20.695312 162.460938 21.523438 166.589844 23.121094 167.675781 C 24.363281 167.507812 25.714844 165.242188 27.175781 160.871094 C 28.203125 157.964844 29.382812 154.171875 30.71875 149.496094 C 36.171875 129.425781 39.496094 117.621094 40.6875 114.078125 C 43.246094 106.445312 44.898438 102.609375 45.644531 102.574219 C 46.929688 101.519531 47.761719 103.265625 48.148438 107.8125 C 48.386719 110.386719 48.558594 113.539062 48.664062 117.269531 C 48.902344 131.472656 49.167969 141.304688 49.460938 146.769531 C 49.800781 154.15625 50.652344 158.175781 52.015625 158.839844 C 51.996094 159.273438 52.59375 158.726562 53.804688 157.203125 C 54.804688 155.5 55.941406 152.875 57.210938 149.328125 C 58.464844 146.097656 62.558594 133.1875 69.5 110.597656 C 70.785156 106.675781 71.949219 103.550781 72.984375 101.214844 L 74.390625 98.628906 C 75.136719 96.890625 76 97.519531 76.976562 100.519531 C 77.265625 100.675781 77.53125 104.523438 77.78125 112.070312 C 77.847656 123.921875 77.179688 142.847656 75.785156 168.855469 C 75.363281 177.808594 74.691406 184.566406 73.773438 189.136719 C 73.441406 191.777344 72.234375 194.757812 70.144531 198.078125 C 69.171875 199.722656 65.929688 202.609375 60.421875 206.730469 C 60.023438 206.972656 59.1875 207.988281 57.910156 209.78125 C 56.34375 211.910156 54.847656 216.398438 53.417969 223.253906 L 42.644531 209.273438 C 42.65625 206.675781 42.773438 204.855469 42.988281 203.808594 C 43.640625 200.675781 44.886719 198.476562 46.726562 197.207031 L 58.789062 190.453125 C 60.554688 189.277344 61.902344 187.824219 62.828125 186.089844 C 64.730469 182.082031 64.878906 175.804688 63.28125 167.257812 C 58.863281 174.980469 55.300781 178.964844 52.585938 179.203125 C 49.539062 179.863281 45.101562 177.5625 39.269531 172.300781 C 33.839844 179.085938 29.539062 182.679688 26.363281 183.085938 C 22.941406 183.921875 17.84375 182.34375 11.066406 178.351562 C 11.757812 187.824219 13.261719 193.570312 15.574219 195.589844 C 19.625 200.15625 23.980469 202.027344 28.636719 201.203125 C 29.53125 225.375 30.441406 245.535156 31.371094 261.679688 L 31.328125 275.71875 C 30.53125 307.847656 30.109375 327.714844 30.058594 335.3125 C 29.976562 348.570312 30.238281 354.867188 30.84375 354.199219 C 32.664062 351.144531 34.8125 334.839844 37.289062 305.285156 C 38.082031 295.136719 38.773438 284.878906 39.355469 274.503906 C 39.9375 264.683594 40.90625 244.839844 42.261719 214.980469 C 42.570312 209.109375 42.871094 205.199219 43.164062 203.253906 L 43.441406 201.980469 L 57.011719 205.53125 C 55.28125 209.328125 53.710938 221.597656 52.308594 242.335938 C 50.316406 269.382812 48.640625 302.363281 47.28125 341.273438 C 46.878906 347.773438 46.261719 353.300781 45.429688 357.859375 C 44.539062 364.125 42.183594 368.933594 38.367188 372.289062 C 31.945312 375.4375 26.671875 375.839844 22.542969 373.5 C 20.167969 372.074219 18.28125 367.988281 16.882812 361.25 C 15.984375 357.109375 15.421875 350.238281 15.195312 340.636719 C 14.921875 316.714844 17.082031 274.9375 21.671875 215.292969 " fill-opacity="1" fill-rule="nonzero"/><path fill="#000000" d="M 432.894531 243.523438 L 420.296875 244.175781 C 419.074219 229.109375 419.09375 218.964844 420.351562 213.742188 C 421.351562 209.359375 422.082031 206.820312 422.546875 206.125 C 423.066406 204.566406 425.460938 199.972656 429.742188 192.351562 C 430.5625 190.753906 431.324219 189.066406 432.027344 187.292969 C 433.46875 183.785156 434.402344 179.675781 434.828125 174.96875 C 435.484375 164.746094 434.148438 154.710938 430.820312 144.871094 C 426.792969 132.453125 419.550781 126.921875 409.089844 128.277344 C 398.34375 131.210938 391.769531 139.300781 389.363281 152.550781 C 388.320312 160.296875 388.851562 168.246094 390.960938 176.394531 C 391.972656 180.296875 393.238281 183.757812 394.761719 186.761719 C 395.429688 188.292969 397.980469 192.023438 402.421875 197.949219 C 403.289062 199.378906 404.121094 201.125 404.914062 203.183594 C 406.523438 207.144531 407.8125 213.347656 408.773438 221.796875 C 409.144531 223.058594 409.578125 231.21875 410.078125 246.277344 C 410.304688 252.5625 410.351562 273.476562 410.214844 309.011719 C 410.226562 315.671875 410.304688 321.75 410.445312 327.238281 C 410.789062 340.207031 411.675781 347.855469 413.105469 350.195312 C 414.832031 353.019531 416.738281 350.910156 418.820312 343.859375 C 420.910156 336.039062 422.214844 327.46875 422.722656 318.148438 C 423.699219 299.8125 422.703125 273.933594 419.734375 240.515625 L 433.132812 238.5625 L 432.867188 345.917969 C 432.761719 355.035156 432.496094 359.949219 432.074219 360.660156 C 431.96875 362.570312 430.816406 364.160156 428.617188 365.429688 C 425.5625 366.898438 421.957031 367.722656 417.796875 367.914062 C 411.4375 367.75 406.914062 365.121094 404.226562 360.015625 C 400.601562 353.386719 398.523438 342.449219 397.992188 327.203125 C 397.816406 325.617188 397.769531 319.375 397.851562 308.480469 L 399.414062 264.230469 C 399.550781 259.238281 399.605469 254.390625 399.582031 249.6875 C 399.578125 240.171875 398.980469 231.902344 397.800781 224.878906 C 396.484375 218.140625 394.628906 212.664062 392.242188 208.449219 C 391.03125 206.035156 387.378906 200.433594 381.273438 191.652344 C 380.15625 189.796875 379.160156 187.785156 378.289062 185.609375 C 376.554688 181.136719 375.4375 176.066406 374.929688 170.394531 C 373.628906 155.121094 376.363281 141.621094 383.140625 129.898438 C 390.4375 119.019531 399.425781 113.480469 410.109375 113.28125 C 429.636719 115.605469 442.136719 129.808594 447.617188 155.898438 C 449.648438 167.371094 449.933594 177.175781 448.476562 185.304688 C 448.390625 186.417969 447.707031 188.960938 446.429688 192.9375 C 446.242188 193.867188 444.070312 198.699219 439.925781 207.429688 C 439.570312 208.035156 438.789062 210.371094 437.582031 214.433594 C 436.105469 219.265625 434.546875 228.960938 432.894531 243.523438 " fill-opacity="1" fill-rule="nonzero"/><path fill="#000000" d="M 283.886719 246.988281 L 284.226562 245.582031 C 288.417969 228.714844 290.421875 216.582031 290.246094 209.175781 C 290.257812 206.132812 289.824219 202.707031 288.945312 198.898438 C 288.472656 196.894531 287.925781 194.90625 287.3125 192.933594 L 283.128906 180.113281 C 282.605469 178.300781 282.488281 177.050781 282.773438 176.367188 C 283.234375 174.90625 284.492188 175.058594 286.550781 176.824219 C 288.785156 178.773438 290.710938 181.558594 292.332031 185.175781 C 294.808594 190.3125 296.535156 194.621094 297.511719 198.105469 C 298.132812 200.335938 298.53125 202.09375 298.710938 203.378906 L 299 205.679688 C 299.148438 207.222656 299.222656 208.773438 299.21875 210.335938 C 299.34375 215.394531 298.203125 222.832031 295.796875 232.652344 C 293.28125 242.835938 290.332031 252.28125 286.949219 260.984375 C 284.945312 265.640625 282.699219 269.335938 280.203125 272.066406 C 276.8125 275.78125 274.707031 277.058594 273.882812 275.90625 C 273.824219 275.542969 273.84375 275.175781 273.9375 274.808594 L 274.78125 272.140625 L 280.878906 256.574219 C 282.238281 252.867188 283.238281 249.671875 283.886719 246.988281 " fill-opacity="1" fill-rule="nonzero"/><path fill="#000000" d="M 217.683594 298.152344 L 213.707031 297.191406 C 205.707031 295.449219 197.894531 292.886719 190.265625 289.507812 C 185.199219 287.179688 180.316406 284.035156 175.617188 280.070312 C 170.898438 276 166.492188 270.976562 162.398438 264.996094 C 160.367188 262.035156 158.460938 258.925781 156.679688 255.671875 C 152.5 247.375 150.195312 242.324219 149.765625 240.511719 C 144.535156 226.167969 142.953125 213.289062 145.019531 201.871094 C 146.5625 193.46875 148.898438 186.660156 152.019531 181.445312 C 154.011719 178.027344 155.894531 175.476562 157.679688 173.785156 C 158.6875 172.660156 160.976562 170.914062 164.550781 168.542969 C 164.929688 168.195312 165.203125 167.789062 165.367188 167.335938 C 165.617188 163.675781 164.328125 161.144531 161.496094 159.738281 C 158.445312 158.71875 155.046875 161.566406 151.308594 168.28125 C 149.632812 170.960938 146.945312 176.4375 143.242188 184.71875 L 134.277344 205.832031 C 133 209.023438 132.378906 210.890625 132.414062 211.425781 C 132.175781 212.199219 132.324219 213.429688 132.859375 215.125 C 135.648438 221.019531 137.621094 225.507812 138.78125 228.59375 C 143.921875 243.035156 146.714844 250.667969 147.160156 251.496094 C 151.148438 261.21875 154.738281 268.246094 157.925781 272.566406 C 160.355469 276.125 163.039062 279.324219 165.984375 282.160156 C 169.792969 285.523438 172.167969 287.414062 173.109375 287.835938 C 181.339844 293.707031 196.199219 297.144531 217.683594 298.152344 " fill-opacity="1" fill-rule="nonzero"/><path fill="#000000" d="M 231.539062 140.503906 L 231.558594 140.464844 C 231.726562 140.054688 232.367188 139.796875 233.484375 139.6875 C 234.707031 139.523438 236.207031 139.496094 237.988281 139.601562 C 241.667969 139.753906 244.757812 140.292969 247.253906 141.21875 C 251.164062 142.722656 254.289062 144.3125 256.636719 145.988281 C 257.398438 146.542969 257.890625 147.167969 258.117188 147.867188 C 258.339844 148.355469 258.300781 148.925781 257.996094 149.582031 C 257.613281 150.222656 257.117188 150.695312 256.511719 151 C 256.179688 151.175781 255.8125 151.304688 255.40625 151.390625 C 255.085938 151.460938 254.761719 151.507812 254.433594 151.53125 C 253.441406 151.574219 252.445312 151.5 251.4375 151.304688 C 249.570312 150.996094 247.957031 150.609375 246.589844 150.148438 C 243.957031 149.34375 240.824219 147.785156 237.195312 145.472656 C 233.605469 143.148438 231.71875 141.492188 231.539062 140.503906 " fill-opacity="1" fill-rule="nonzero"/><path fill="#000000" d="M 108.003906 262.617188 L 108.589844 257.105469 C 110.667969 236.867188 112.835938 220.640625 115.101562 208.433594 C 116.800781 199.765625 117.886719 194.617188 118.359375 192.996094 C 119.367188 188.6875 121.648438 180.007812 125.207031 166.960938 C 125.785156 164.730469 126.222656 162.835938 126.523438 161.277344 L 126.832031 159.246094 L 126.859375 157.820312 L 126.503906 157.019531 C 126.027344 156.859375 125.425781 157.152344 124.703125 157.894531 C 121.632812 161.53125 119.128906 165.519531 117.199219 169.847656 C 116.058594 172.214844 114.953125 174.816406 113.878906 177.652344 L 112.335938 182.039062 C 111.339844 185.066406 110.46875 188.25 109.722656 191.582031 L 108.710938 196.800781 C 108.121094 200.34375 107.664062 204 107.347656 207.765625 L 106.953125 213.480469 C 106.753906 217.339844 106.648438 221.28125 106.640625 225.296875 L 106.679688 231.363281 C 106.746094 235.441406 106.867188 239.5625 107.042969 243.730469 C 107.105469 245.792969 107.425781 252.085938 108.003906 262.617188 " fill-opacity="1" fill-rule="nonzero"/><path fill="#000000" d="M 336.285156 257.59375 L 336.402344 257.21875 C 338.148438 251.917969 339.710938 244.894531 341.09375 236.148438 C 342.476562 227.4375 343.371094 218.644531 343.785156 209.765625 C 343.875 207.121094 343.605469 204.363281 342.96875 201.5 C 342.691406 200.492188 342.34375 199.5 341.929688 198.523438 L 337.792969 189.878906 C 337.382812 188.902344 337.042969 187.914062 336.769531 186.898438 C 335.886719 182.585938 335.730469 179.527344 336.296875 177.714844 C 336.472656 176.628906 337.253906 176.609375 338.636719 177.660156 C 341.117188 180.101562 343.175781 182.480469 344.8125 184.804688 C 347.132812 187.90625 348.917969 192.222656 350.171875 197.757812 C 351.152344 201.59375 351.621094 208.019531 351.578125 217.042969 C 351.472656 223.550781 350.859375 230.027344 349.738281 236.46875 C 348.613281 242.914062 346.929688 249.167969 344.683594 255.234375 C 341.683594 262.648438 339.578125 267.027344 338.359375 268.371094 C 336.273438 271.710938 332.910156 275.378906 328.277344 279.378906 C 326.167969 281.183594 323.425781 283.144531 320.046875 285.265625 C 318.570312 286.011719 317.804688 286.089844 317.757812 285.496094 C 317.753906 285.296875 317.785156 285.125 317.855469 284.984375 L 318.597656 283.828125 C 325.433594 275.660156 329.605469 270.304688 331.109375 267.757812 C 333.527344 264.046875 335.25 260.660156 336.285156 257.59375 " fill-opacity="1" fill-rule="nonzero"/><path fill="#000000" d="M 216.171875 195.15625 L 217.777344 192.882812 C 225.71875 180.683594 233.28125 173.96875 240.464844 172.730469 C 241.027344 172.5 242.75 172.46875 245.632812 172.648438 C 247.957031 172.945312 250.207031 173.671875 252.398438 174.820312 C 257.101562 177.558594 260.519531 181.011719 262.664062 185.179688 C 266.367188 191.304688 267.21875 199.445312 265.226562 209.597656 C 262.636719 219.886719 256.429688 231.746094 246.613281 245.179688 C 239.390625 255.191406 231.550781 265.464844 223.089844 276.011719 C 212.410156 267.402344 202.457031 258.792969 193.238281 250.191406 C 183.183594 240.15625 177.003906 232.992188 174.710938 228.699219 C 172.871094 225.835938 171.34375 222.976562 170.140625 220.117188 C 169.183594 218.636719 168.035156 214.441406 166.695312 207.527344 C 165.792969 199.210938 166.8125 191.972656 169.75 185.808594 C 173.78125 178.175781 178.734375 173.457031 184.613281 171.648438 C 191.25 169.34375 197.234375 169.789062 202.570312 172.984375 C 208.03125 176.753906 212.742188 184.363281 216.703125 195.816406 L 217.636719 222.960938 C 215.027344 220.050781 212.902344 216.785156 211.261719 213.160156 C 210.921875 212.773438 209.140625 207.683594 205.914062 197.894531 C 205.144531 195.785156 204.300781 193.894531 203.382812 192.21875 C 201.578125 188.886719 199.292969 186.6875 196.53125 185.609375 C 190.355469 183.996094 185.277344 185.65625 181.308594 190.589844 C 178.402344 195.09375 177.703125 200.835938 179.207031 207.820312 C 180.59375 215.007812 184.34375 222.503906 190.460938 230.304688 C 194.667969 236.039062 204.453125 245.535156 219.820312 258.796875 C 233.480469 240.917969 242.84375 227.375 247.910156 218.164062 C 252.378906 210.578125 254.414062 203.679688 254.011719 197.464844 C 253.839844 196.125 253.515625 194.953125 253.042969 193.949219 C 252.953125 193.214844 251.972656 192.121094 250.09375 190.667969 C 247.355469 189.378906 244.433594 189.816406 241.328125 191.980469 C 235.433594 196.21875 227.523438 206.476562 217.59375 222.746094 L 216.171875 195.15625 " fill-opacity="1" fill-rule="nonzero"/><path fill="#000000" d="M 194.832031 83.542969 L 194.964844 83.269531 C 214.933594 74.617188 237.457031 74.347656 262.535156 82.457031 C 290.351562 93.394531 313.25 110.546875 331.234375 133.921875 C 338.644531 143.46875 344.808594 154.066406 349.71875 165.714844 C 355.269531 179.21875 358.691406 193.570312 359.988281 208.773438 C 361.285156 223.980469 360.292969 239.097656 357.007812 254.128906 C 351.828125 272.457031 347.988281 283.171875 345.488281 286.273438 C 334.53125 306.792969 319.109375 323.59375 299.230469 336.671875 C 296.25 339.457031 286.113281 344.78125 268.816406 352.644531 C 254.648438 358.242188 240.683594 361.511719 226.921875 362.449219 C 207.800781 364.125 187.351562 359.800781 165.578125 349.472656 C 144.921875 339.394531 125.839844 323.515625 108.34375 301.835938 C 91.773438 279.152344 84.113281 257.4375 85.351562 236.703125 C 85.816406 226.375 87.738281 215.367188 91.117188 203.6875 C 98.652344 178.328125 104.925781 160.753906 109.945312 150.960938 C 118.210938 132.113281 129.398438 117.015625 143.511719 105.664062 C 158.054688 93.859375 179.652344 85.058594 208.308594 79.257812 C 211.714844 78.730469 214.902344 78.601562 217.871094 78.878906 L 220.933594 91.230469 C 172.945312 92.394531 136.6875 121.546875 112.160156 178.695312 C 102.460938 204.847656 98.828125 226.195312 101.257812 242.742188 C 103.679688 262.023438 109.933594 278.570312 120.019531 292.386719 C 152.195312 335.144531 188.011719 354.5 227.472656 350.453125 C 237.859375 349.039062 247.832031 346.308594 257.394531 342.253906 C 271.78125 336.074219 285.054688 328.671875 297.222656 320.042969 C 317.894531 306.046875 332.960938 287.835938 342.4375 265.410156 C 347.921875 249.03125 350.539062 236.832031 350.300781 228.8125 C 350.878906 218.488281 350.128906 208.078125 348.042969 197.585938 C 343.511719 176.207031 334.019531 156.730469 319.566406 139.164062 C 310.46875 128.914062 304.800781 123.078125 302.554688 121.660156 C 298.515625 118.164062 294.355469 114.992188 290.074219 112.136719 C 279.78125 105.636719 270.566406 101.210938 262.429688 98.867188 C 244.46875 93.785156 228.96875 91.574219 215.929688 92.238281 C 199.253906 92.640625 188.304688 94.808594 183.089844 98.75 L 194.832031 83.542969 " fill-opacity="1" fill-rule="nonzero"/></svg>