<svg xmlns="http://www.w3.org/2000/svg" xmlns:xlink="http://www.w3.org/1999/xlink" width="1080" zoomAndPan="magnify" viewBox="0 0 810 809.999993" height="1080" preserveAspectRatio="xMidYMid meet" version="1.0"><defs><clipPath id="60ee28fe17"><path d="M 341 177 L 801 177 L 801 637.875 L 341 637.875 Z M 341 177 " clip-rule="nonzero"/></clipPath></defs><g clip-path="url(#60ee28fe17)"><path fill="#231916" d="M 789.195312 490.414062 C 784.910156 491.269531 764.976562 487.625 768.832031 482.054688 L 756.832031 477.339844 L 758.117188 479.695312 L 756.832031 479.695312 L 752.117188 478.625 L 752.117188 477.339844 L 755.757812 477.339844 L 755.757812 476.265625 L 751.042969 474.980469 C 751.042969 479.695312 743.972656 474.121094 741.398438 472.835938 C 730.683594 467.691406 724.679688 463.621094 715.035156 456.761719 C 689.53125 438.113281 671.097656 409.179688 648.164062 387.53125 C 641.089844 380.886719 596.9375 328.589844 587.292969 305.226562 C 595.222656 306.296875 629.515625 309.726562 635.089844 309.941406 C 648.378906 310.15625 661.667969 311.871094 674.527344 315.300781 C 679.242188 316.585938 687.171875 321.085938 691.886719 318.945312 C 695.960938 317.015625 695.316406 304.796875 695.960938 300.511719 C 695.960938 300.511719 694.886719 286.792969 697.246094 277.792969 L 616.011719 271.578125 L 583.863281 267.074219 C 581.078125 251 580.433594 242.640625 583.863281 226.351562 L 582.578125 226.351562 L 582.578125 229.996094 L 581.289062 229.996094 L 581.289062 189.484375 L 578.933594 186.914062 C 567.359375 179.625 548.070312 175.984375 534.78125 179.839844 C 528.136719 172.125 496.414062 183.484375 496.414062 183.484375 C 491.699219 184.769531 484.195312 187.769531 486.125 194.203125 C 487.410156 198.917969 493.84375 202.347656 496.628906 206.417969 C 508.632812 224.636719 524.921875 238.996094 534.78125 258.929688 L 495.34375 256.574219 L 496.628906 254.214844 L 434.472656 251.859375 L 428.46875 255.5 L 427.183594 260.214844 L 412.824219 258.929688 C 407.25 271.578125 420.539062 283.578125 424.824219 294.722656 L 433.183594 294.722656 L 429.542969 299.441406 C 433.183594 298.367188 434.042969 297.726562 433.183594 300.726562 L 436.828125 302.011719 L 440.472656 300.726562 L 444.117188 310.371094 L 451.1875 310.371094 L 453.546875 321.085938 L 459.546875 322.375 C 472.835938 319.800781 497.914062 300.726562 510.988281 312.730469 C 504.558594 314.65625 499.414062 326.875 500.058594 333.089844 C 491.484375 338.019531 482.480469 353.882812 478.625 362.882812 L 479.910156 362.882812 L 481.195312 359.453125 L 484.839844 366.527344 L 477.765625 364.167969 L 475.410156 372.527344 L 471.765625 373.8125 L 468.121094 378.53125 C 463.835938 384.746094 459.332031 389.675781 459.761719 397.605469 L 455.046875 396.320312 L 437.042969 423.753906 L 428.683594 440.472656 L 426.328125 438.113281 L 425.039062 438.113281 C 406.609375 456.546875 385.601562 470.050781 361.597656 480.339844 C 356.667969 482.480469 347.449219 491.484375 342.519531 490.625 L 341.234375 490.625 C 343.378906 498.558594 350.664062 504.34375 359.238281 503.699219 L 361.597656 508.417969 L 360.3125 504.773438 L 367.382812 507.128906 L 363.742188 508.417969 L 363.742188 509.703125 L 365.027344 512.058594 L 369.742188 512.058594 L 368.457031 508.417969 L 378.101562 512.058594 L 376.816406 509.703125 L 378.101562 509.703125 L 381.53125 513.347656 L 385.175781 512.058594 C 386.886719 515.273438 390.53125 514.632812 391.175781 510.773438 L 395.890625 515.488281 L 407.894531 513.132812 L 406.609375 516.777344 L 407.894531 516.777344 C 412.394531 513.5625 417.539062 514.203125 414.964844 507.128906 L 420.96875 505.84375 C 429.328125 507.773438 435.113281 501.988281 441.328125 497.484375 C 444.757812 500.058594 449.472656 494.054688 451.832031 491.484375 C 459.332031 483.554688 469.835938 477.339844 467.691406 465.335938 L 470.050781 468.980469 C 475.835938 467.050781 477.980469 462.550781 479.695312 456.976562 L 474.980469 456.976562 L 474.980469 455.691406 L 482.054688 456.976562 L 486.769531 449.902344 L 485.484375 446.257812 C 489.984375 444.117188 491.914062 441.757812 491.484375 436.613281 L 495.128906 431.898438 L 496.414062 431.898438 L 496.414062 434.257812 L 497.699219 434.257812 L 502.628906 422.253906 L 503.914062 420.324219 L 500.058594 422.253906 L 501.34375 416.253906 L 504.558594 419.46875 L 506.058594 417.539062 L 508.417969 411.539062 L 504.773438 412.824219 L 506.058594 408.109375 L 512.058594 410.464844 L 509.703125 405.75 L 514.417969 405.75 L 512.058594 403.390625 C 517.203125 400.175781 525.777344 390.53125 522.777344 384.316406 L 521.492188 384.316406 L 522.777344 380.671875 L 522.777344 384.316406 C 528.351562 381.957031 530.707031 378.53125 529.851562 372.3125 L 533.492188 372.3125 L 533.492188 367.382812 L 537.136719 368.671875 L 540.78125 356.882812 L 538.421875 356.882812 L 540.78125 354.308594 L 540.78125 356.667969 L 542.066406 356.667969 L 543.351562 381.746094 L 543.351562 383.03125 L 542.496094 396.105469 L 545.710938 433.183594 L 545.496094 441.542969 L 548.070312 465.335938 L 547.855469 467.90625 L 546.78125 479.695312 L 516.988281 483.554688 L 498.984375 479.695312 L 500.273438 483.339844 L 508.203125 504.558594 C 508.203125 504.558594 510.558594 520.847656 510.558594 521.707031 L 520.632812 522.777344 L 533.707031 522.777344 L 534.996094 526.421875 L 538.636719 525.136719 C 539.710938 530.277344 543.351562 528.136719 546.996094 526.421875 L 550.640625 550.425781 C 535.851562 548.070312 520.632812 548.070312 505.84375 544.425781 C 492.769531 540.996094 476.695312 533.28125 463.40625 534.78125 C 460.621094 542.710938 458.261719 548.496094 449.046875 550.425781 L 443.042969 557.5 C 445.832031 562.859375 450.546875 570.359375 456.761719 572.503906 C 457.40625 572.71875 458.046875 572.929688 458.691406 573.144531 L 467.050781 582.789062 L 480.125 587.507812 L 489.769531 593.507812 L 489.769531 595.867188 C 496.84375 596.722656 509.917969 606.152344 514.847656 611.511719 L 530.277344 617.511719 L 554.285156 629.515625 L 554.285156 630.800781 L 557.929688 629.515625 L 559.214844 633.160156 L 563.929688 630.800781 L 568.644531 637.875 L 580.003906 635.945312 L 583.003906 635.304688 C 591.363281 631.445312 595.222656 629.085938 597.367188 619.65625 L 595.007812 620.941406 L 595.007812 619.65625 L 598.222656 592.222656 L 597.367188 592.222656 L 598.652344 589.863281 L 598.4375 592.222656 L 598.652344 592.222656 L 601.011719 586.21875 L 597.367188 587.507812 L 597.367188 570.789062 L 598.652344 570.789062 L 598.652344 574.433594 L 599.9375 574.433594 L 597.582031 560.070312 L 601.222656 560.070312 L 601.222656 554.070312 L 599.9375 551.710938 L 596.292969 548.070312 L 599.9375 546.996094 L 599.9375 542.710938 L 597.582031 543.351562 L 599.9375 542.066406 L 599.9375 542.710938 L 607.226562 540.78125 L 620.300781 542.066406 L 620.300781 544.425781 L 625.015625 545.710938 L 629.730469 544.425781 C 634.445312 551.496094 640.449219 541.210938 646.449219 540.78125 L 656.09375 533.707031 L 659.738281 524.0625 C 663.808594 522.992188 674.527344 516.347656 671.742188 510.988281 L 669.382812 513.347656 L 669.382812 510.988281 L 671.742188 510.988281 C 671.742188 510.558594 671.3125 510.132812 671.097656 509.703125 C 665.953125 504.128906 643.449219 500.058594 638.519531 497.699219 C 624.15625 491.269531 610.441406 491.914062 595.4375 490.625 C 597.582031 487.410156 599.296875 472.195312 595.4375 471.335938 L 597.792969 467.691406 L 599.082031 460.621094 L 597.792969 460.621094 L 597.792969 464.265625 L 596.507812 464.265625 L 597.792969 455.90625 L 599.082031 455.90625 L 600.367188 391.390625 L 601.652344 391.390625 C 607.867188 403.179688 627.585938 413.894531 628.015625 427.183594 L 631.660156 425.898438 L 635.304688 430.613281 L 636.375 431.898438 L 640.019531 436.613281 L 666.167969 471.121094 L 685.457031 493.84375 C 694.675781 500.699219 705.390625 509.273438 714.394531 517.417969 C 716.320312 519.132812 718.25 521.0625 720.179688 522.777344 C 727.894531 530.277344 736.683594 541.851562 747.613281 544.210938 L 747.613281 550.210938 L 739.257812 546.570312 C 744.398438 554.925781 753.402344 551.5 760.691406 547.210938 C 772.90625 540.136719 795.839844 523.632812 796.484375 508.417969 C 808.914062 500.914062 789.625 493.84375 789.195312 490.414062 Z M 675.597656 280.578125 C 676.457031 280.578125 675.8125 281.222656 675.167969 281.007812 Z M 642.160156 279.292969 C 643.019531 279.292969 642.375 279.933594 641.734375 279.722656 Z M 638.519531 277.578125 L 638.519531 278.863281 L 634.875 278.863281 Z M 631.445312 276.507812 L 631.445312 277.792969 L 625.445312 277.792969 Z M 428.253906 292.367188 L 428.683594 292.796875 C 428.042969 293.011719 427.183594 292.367188 428.253906 292.367188 Z M 448.1875 255.714844 L 448.617188 255.285156 C 449.472656 255.285156 448.832031 255.929688 448.1875 255.714844 Z M 451.832031 255.714844 L 452.261719 255.285156 C 453.117188 255.285156 452.261719 255.929688 451.832031 255.714844 Z M 458.046875 256.144531 L 458.046875 254.859375 L 462.761719 253.574219 Z M 476.050781 263.21875 L 476.050781 265.574219 L 473.695312 263.21875 Z M 478.410156 301.582031 L 476.050781 299.226562 L 478.410156 299.226562 Z M 482.054688 263.21875 L 484.410156 263.21875 L 484.410156 265.574219 L 482.054688 265.574219 Z M 483.125 300.296875 L 484.410156 297.941406 L 485.695312 300.296875 Z M 489.984375 266.433594 L 490.414062 266.003906 C 491.269531 266.003906 490.625 266.648438 489.984375 266.433594 Z M 482.054688 259.789062 L 484.410156 256.144531 L 488.054688 256.144531 L 491.699219 262.144531 Z M 362.453125 481.195312 L 362.882812 481.625 C 362.238281 481.839844 361.597656 481.195312 362.453125 481.195312 Z M 387.53125 497.699219 L 385.175781 497.699219 L 387.53125 495.34375 Z M 391.175781 490.414062 L 389.890625 489.125 L 393.53125 485.484375 Z M 412.609375 494.054688 L 408.964844 491.699219 L 396.960938 495.34375 L 396.960938 494.054688 L 411.324219 490.414062 L 410.035156 487.839844 L 411.324219 486.554688 L 414.964844 490.199219 Z M 422.253906 443.902344 L 423.539062 441.542969 L 425.898438 443.902344 Z M 437.902344 430.613281 L 437.902344 434.257812 L 436.613281 434.257812 Z M 438.972656 461.691406 L 437.6875 461.691406 L 438.972656 458.046875 Z M 443.6875 497.699219 L 442.402344 497.699219 L 444.757812 491.699219 L 446.046875 495.34375 Z M 455.691406 485.695312 L 454.402344 485.695312 L 456.761719 479.695312 Z M 460.40625 395.890625 L 461.691406 393.53125 L 462.976562 395.890625 Z M 465.335938 476.050781 L 462.976562 476.050781 L 461.691406 474.765625 L 461.691406 472.195312 L 467.691406 468.550781 Z M 467.691406 382.816406 L 470.050781 380.457031 L 470.050781 382.816406 Z M 471.335938 465.335938 L 470.050781 465.335938 L 472.410156 461.691406 Z M 473.695312 381.746094 L 473.695312 376.816406 L 476.050781 378.101562 Z M 480.765625 452.261719 L 478.410156 449.902344 L 480.765625 449.902344 Z M 492.769531 348.09375 L 495.128906 348.09375 L 495.128906 350.453125 L 492.769531 350.453125 Z M 486.769531 354.09375 L 489.339844 359.023438 L 484.410156 360.097656 Z M 482.054688 447.332031 C 483.339844 443.6875 484.410156 443.257812 488.054688 443.6875 Z M 487.839844 436.613281 L 489.125 432.96875 L 491.484375 432.96875 Z M 496.199219 430.613281 L 492.554688 428.253906 L 496.199219 426.96875 Z M 498.773438 343.378906 L 495.128906 344.664062 L 498.773438 342.308594 Z M 498.773438 340.164062 L 499.199219 340.59375 C 498.558594 340.808594 497.699219 340.164062 498.773438 340.164062 Z M 504.773438 264.503906 L 503.488281 264.503906 L 503.488281 260.859375 L 505.84375 260.859375 Z M 511.847656 269.21875 L 507.128906 267.933594 L 508.417969 266.648438 L 512.058594 267.933594 L 512.058594 269.21875 Z M 509.488281 262.144531 L 510.773438 259.789062 L 512.058594 262.144531 Z M 513.132812 263.21875 L 513.132812 260.859375 L 515.488281 260.859375 Z M 520.207031 388.816406 L 520.207031 384.101562 L 521.492188 388.816406 Z M 521.0625 261.71875 L 521.492188 261.289062 C 522.347656 261.289062 521.707031 261.929688 521.0625 261.71875 Z M 525.132812 381.746094 L 525.132812 379.386719 L 527.492188 379.386719 Z M 525.132812 376.816406 L 526.421875 374.457031 L 527.707031 376.816406 Z M 530.921875 367.167969 L 530.921875 364.8125 L 533.28125 364.8125 Z M 534.566406 264.503906 L 528.5625 263.21875 L 534.566406 263.21875 Z M 530.707031 504.34375 L 531.136719 503.914062 C 531.992188 503.914062 531.136719 504.558594 530.707031 504.34375 Z M 545.28125 483.339844 L 545.28125 485.695312 L 542.925781 485.695312 Z M 539.28125 508.417969 L 534.566406 509.703125 L 539.28125 507.34375 Z M 539.28125 504.773438 L 545.28125 504.773438 L 545.28125 506.058594 Z M 546.566406 511.847656 L 542.925781 509.488281 L 547.640625 508.203125 Z M 536.921875 211.132812 C 537.78125 211.132812 537.136719 211.777344 536.496094 211.5625 Z M 529.421875 246.070312 L 529.851562 245.640625 C 530.707031 245.855469 530.066406 246.285156 529.421875 246.070312 Z M 530.921875 193.988281 L 527.277344 193.988281 L 530.921875 192.699219 Z M 533.492188 219.0625 L 535.851562 219.0625 L 535.851562 221.421875 Z M 534.566406 222.707031 L 536.921875 222.707031 L 536.921875 225.066406 L 534.566406 225.066406 Z M 536.496094 265.359375 L 536.921875 264.933594 C 537.78125 264.933594 537.136719 265.574219 536.496094 265.359375 Z M 535.851562 234.496094 L 537.136719 232.140625 L 538.421875 234.496094 Z M 539.28125 219.0625 L 545.28125 223.78125 L 538.210938 220.136719 Z M 539.28125 227.421875 L 540.566406 225.066406 L 541.851562 227.421875 Z M 542.925781 237.070312 L 540.566406 237.070312 L 540.566406 234.710938 L 542.925781 234.710938 Z M 544.210938 227.421875 L 547.855469 226.136719 L 547.855469 227.421875 Z M 547.640625 252.5 L 545.28125 247.785156 L 547.640625 246.5 L 548.925781 252.5 Z M 497.484375 554.925781 L 492.769531 552.570312 L 491.484375 550.210938 L 492.769531 548.925781 L 501.128906 554.925781 Z M 503.488281 553.640625 L 504.773438 552.570312 L 508.417969 556.214844 Z M 521.492188 557.285156 L 521.492188 554.925781 L 523.847656 554.925781 Z M 572.929688 185.628906 L 572.929688 186.699219 L 568.214844 191.628906 Z M 565.644531 187.128906 C 566.714844 187.128906 565.859375 187.769531 565.214844 187.558594 Z M 566.929688 309.941406 L 568.214844 313.585938 L 564.574219 311.226562 Z M 563.285156 298.367188 C 564.144531 298.367188 563.5 299.011719 562.859375 298.796875 Z M 562 335.019531 L 565.859375 322.375 L 565.429688 321.945312 L 566.074219 321.730469 L 566.714844 319.585938 L 568 320.875 L 566.074219 321.730469 L 565.859375 322.375 L 569.074219 326.660156 L 569.074219 327.945312 L 566.714844 327.945312 L 566.714844 330.304688 L 570.359375 329.019531 L 570.359375 331.375 L 565.429688 346.808594 L 569.074219 351.523438 L 569.074219 355.167969 L 565.429688 353.882812 L 565.429688 359.882812 L 561.785156 336.089844 L 561.785156 335.019531 Z M 553.855469 246.714844 L 553.855469 250.355469 L 552.570312 250.355469 Z M 548.925781 558.570312 L 551.285156 564.574219 L 546.566406 562.214844 Z M 534.566406 559.644531 L 538.210938 558.355469 L 534.566406 560.714844 Z M 536.921875 594.363281 L 532.207031 594.363281 L 533.492188 589.648438 L 550.210938 598.007812 L 550.210938 599.292969 C 545.496094 598.867188 537.78125 600.152344 536.921875 594.363281 Z M 556.214844 601.4375 L 548.925781 602.722656 L 551.285156 601.007812 L 551.285156 600.367188 L 552.140625 600.367188 L 553.640625 599.292969 L 553.640625 600.367188 L 552.140625 600.367188 L 551.285156 601.007812 L 551.285156 601.652344 L 556.214844 600.367188 Z M 556.214844 552.570312 L 558.570312 546.566406 L 557.285156 552.570312 Z M 558.570312 602.082031 L 559 602.507812 C 558.355469 602.507812 557.714844 602.082031 558.570312 602.082031 Z M 562 379.171875 L 564.574219 371.242188 L 564.359375 370.8125 L 564.785156 370.597656 L 565.429688 368.242188 L 566.714844 369.527344 L 564.785156 370.597656 L 564.574219 371.242188 L 570.359375 382.816406 L 565.429688 384.101562 L 564.144531 382.816406 L 565.429688 378.101562 Z M 564.359375 399.535156 L 565.644531 393.53125 L 568.214844 398.25 Z M 569.289062 443.902344 L 568 443.902344 L 569.289062 440.257812 Z M 568 422.253906 L 569.289062 422.253906 L 571.644531 431.898438 L 569.289062 431.898438 Z M 572.929688 441.328125 L 571.644531 441.328125 L 572.929688 432.972656 Z M 574.003906 394.820312 L 572.71875 394.820312 L 572.71875 391.175781 L 575.074219 391.175781 Z M 574.003906 370.8125 L 572.71875 370.8125 L 575.074219 365.882812 Z M 576.359375 351.738281 L 575.074219 351.738281 L 576.359375 344.664062 Z M 581.289062 618.585938 L 581.71875 619.011719 C 581.078125 619.226562 580.21875 618.585938 581.289062 618.585938 Z M 582.148438 621.371094 L 582.578125 620.941406 C 583.433594 621.15625 582.578125 621.800781 582.148438 621.371094 Z M 602.722656 282.507812 L 604.011719 280.148438 L 606.582031 282.507812 Z M 613.441406 299.65625 C 614.296875 299.65625 613.65625 300.296875 613.011719 300.082031 Z M 612.15625 282.507812 L 612.15625 283.792969 L 608.511719 283.792969 Z M 587.078125 271.578125 L 606.367188 273.933594 L 606.367188 275.21875 L 596.722656 276.507812 C 596.722656 272.863281 592.863281 273.503906 590.722656 275.21875 L 589.433594 275.21875 L 585.792969 272.863281 Z M 664.882812 516.988281 L 665.308594 517.417969 C 664.667969 517.632812 664.023438 516.988281 664.882812 516.988281 Z M 617.085938 527.492188 L 617.085938 528.777344 L 613.441406 530.066406 Z M 619.441406 533.492188 L 619.441406 527.492188 L 624.15625 529.851562 L 626.515625 538.210938 L 610.867188 535.851562 L 609.582031 531.136719 Z M 607.4375 498.773438 L 607.4375 500.058594 L 605.082031 497.699219 Z M 608.726562 529.851562 L 608.726562 531.136719 C 606.152344 532.207031 602.722656 532.851562 606.367188 534.78125 L 606.367188 536.066406 L 599.082031 534.78125 C 600.582031 529.851562 604.011719 529.851562 608.726562 529.851562 Z M 626.730469 379.171875 L 628.015625 376.816406 L 629.300781 379.171875 Z M 656.523438 413.894531 L 657.808594 411.324219 L 659.09375 413.894531 Z M 674.3125 430.613281 L 675.597656 428.253906 L 677.957031 430.613281 Z M 759.402344 479.695312 L 766.476562 482.054688 L 766.476562 483.339844 L 758.117188 480.980469 Z M 725.753906 515.917969 L 726.179688 516.347656 C 725.539062 516.5625 724.894531 515.917969 725.753906 515.917969 Z M 731.753906 510.773438 C 727.679688 509.703125 723.394531 508.203125 723.394531 503.703125 L 731.753906 509.703125 Z M 743.757812 520.203125 L 743.757812 521.492188 L 741.398438 519.132812 Z M 753.402344 534.996094 L 753.832031 535.421875 C 753.1875 535.636719 752.328125 534.996094 753.402344 534.996094 Z M 743.757812 526.207031 L 746.113281 521.492188 L 759.1875 532.207031 Z M 773.550781 522.5625 L 772.261719 516.5625 L 775.90625 516.5625 Z M 766.476562 500.058594 L 767.761719 498.773438 L 779.765625 504.773438 Z M 783.195312 491.914062 L 783.621094 492.339844 C 782.980469 492.554688 782.335938 491.914062 783.195312 491.914062 Z M 792.625 502.414062 L 792.625 498.773438 L 794.984375 498.773438 Z M 792.625 502.414062 " fill-opacity="1" fill-rule="nonzero"/></g><path fill="#231916" d="M 274.792969 403.820312 C 274.792969 403.820312 268.789062 349.59375 268.148438 344.664062 C 266.648438 333.519531 262.789062 321.085938 261.074219 309.085938 C 259.789062 301.582031 259.359375 294.082031 260.644531 287.007812 C 256.144531 282.507812 252.714844 270.933594 252.714844 270.933594 L 247.140625 235.566406 C 241.140625 231.710938 214.5625 221.421875 210.917969 224.421875 C 203.203125 221.851562 147.691406 230.636719 141.476562 237.28125 L 120.257812 239.640625 L 69.246094 248.855469 L 17.804688 250.144531 C 14.804688 250.144531 12.445312 252.929688 12.875 255.929688 L 15.445312 258.929688 C 31.519531 264.289062 33.449219 287.4375 53.382812 289.792969 C 60.242188 301.796875 71.601562 295.367188 81.890625 294.511719 C 81.890625 294.511719 121.96875 281.4375 138.046875 277.792969 C 150.90625 274.792969 165.910156 272.433594 179.199219 273.078125 C 187.34375 273.503906 195.488281 276.933594 203.632812 276.507812 L 209.847656 282.722656 L 207.917969 288.082031 L 212.632812 295.582031 L 218.851562 315.730469 L 223.136719 334.164062 L 225.707031 378.957031 L 226.566406 438.757812 L 225.921875 481.625 L 225.921875 483.125 L 222.28125 501.988281 L 216.707031 539.066406 L 187.769531 541.210938 L 102.039062 546.566406 L 105.253906 541.425781 L 92.820312 541.425781 L 93.464844 535.851562 L 86.390625 536.28125 L 88.964844 526.847656 L 86.390625 459.332031 C 86.175781 456.976562 87.25 454.617188 88.964844 453.332031 C 90.035156 452.476562 91.320312 452.046875 92.820312 451.832031 L 138.261719 449.261719 L 137.1875 446.257812 L 138.472656 446.257812 L 142.761719 445.402344 C 142.761719 445.402344 179.199219 444.972656 191.414062 444.972656 C 195.058594 444.972656 203.417969 447.546875 205.988281 444.972656 C 214.992188 435.757812 205.777344 393.105469 205.777344 393.105469 L 204.488281 392.890625 L 201.488281 395.460938 L 194.203125 391.820312 C 190.558594 384.746094 174.695312 383.886719 167.410156 383.03125 C 152.621094 381.316406 135.6875 382.816406 121.113281 386.246094 C 108.46875 389.460938 93.035156 395.246094 80.175781 392.246094 L 82.320312 385.601562 L 78.03125 386.460938 L 73.746094 376.171875 L 76.101562 355.59375 L 71.816406 356.453125 C 71.171875 345.734375 70.101562 319.160156 62.8125 311.871094 C 56.167969 305.226562 46.738281 302.65625 38.59375 298.796875 C 34.523438 296.867188 18.445312 295.152344 8.160156 295.152344 C 4.300781 295.152344 1.085938 298.367188 1.085938 302.226562 L 2.371094 405.320312 L 3.015625 445.617188 C 7.085938 445.402344 8.160156 468.335938 7.945312 475.410156 C 7.515625 501.988281 13.089844 541.851562 4.730469 563.929688 L 17.804688 571.003906 L 15.875 574.859375 L 21.449219 575.503906 L 24.234375 587.078125 L 30.234375 583.648438 L 34.308594 584.078125 L 32.59375 586.648438 L 43.523438 587.933594 L 45.453125 584.078125 L 46.738281 584.078125 L 44.59375 589.433594 L 71.386719 587.078125 L 72.671875 587.078125 C 80.605469 593.507812 98.609375 587.507812 108.683594 588.578125 L 110.609375 584.503906 L 116.183594 583.863281 L 114.253906 589.222656 L 118.753906 585.578125 L 119.613281 589.863281 L 120.898438 589.863281 L 125.613281 584.933594 L 123.898438 588.792969 L 135.257812 586.003906 L 159.90625 590.078125 L 212.632812 589.863281 L 252.285156 582.789062 L 255.929688 574.859375 C 262.144531 574.433594 265.144531 566.929688 260.003906 562.859375 L 264.289062 562 C 262.789062 556.425781 267.289062 548.496094 267.289062 548.496094 L 266.433594 544.210938 L 266.433594 542.925781 C 263.433594 527.921875 269.003906 509.917969 270.503906 494.699219 C 274.578125 466.835938 277.792969 432.113281 274.792969 403.820312 Z M 155.191406 262.144531 L 154.976562 263.644531 L 150.691406 264.503906 Z M 144.691406 255.929688 C 145.761719 255.929688 144.90625 256.574219 144.261719 256.359375 Z M 106.96875 270.71875 L 84.675781 272.21875 L 107.179688 269.21875 Z M 114.253906 268.574219 L 112.96875 268.363281 L 114.898438 264.503906 L 116.183594 264.71875 Z M 155.835938 267.933594 L 148.976562 265.574219 L 140.402344 264.71875 L 138.046875 265.789062 L 126.257812 271.363281 L 128.402344 266.003906 L 120.042969 265.144531 L 120.257812 263.859375 L 135.257812 267.074219 L 132.6875 263.859375 L 140.402344 264.71875 L 142.546875 263.644531 L 148.976562 265.789062 L 156.050781 266.648438 Z M 165.695312 266.21875 L 156.480469 262.359375 L 165.910156 263.433594 Z M 168.265625 256.789062 L 166.980469 256.789062 L 166.125 252.5 L 170.195312 252.929688 Z M 174.054688 254.859375 L 174.269531 253.359375 L 178.339844 253.785156 L 178.984375 248.214844 L 182.199219 255.5 Z M 197.84375 398.25 C 198.917969 398.25 197.84375 398.890625 197.417969 398.675781 Z M 128.828125 442.402344 L 128.613281 445.1875 L 123.472656 440.472656 L 136.117188 439.1875 C 134.402344 443.257812 132.902344 443.472656 128.828125 442.402344 Z M 152.191406 418.824219 L 154.765625 422.039062 L 150.691406 421.609375 Z M 145.546875 441.757812 L 138.902344 439.613281 L 140.402344 438.542969 L 145.761719 440.472656 Z M 136.757812 408.75 L 138.046875 408.964844 L 139.332031 410.464844 L 139.117188 413.25 C 136.117188 412.179688 135.046875 411.539062 136.757812 408.75 Z M 130.972656 410.894531 L 130.757812 413.679688 L 128.1875 410.679688 Z M 126.898438 410.464844 L 126.6875 413.25 L 123.898438 413.039062 Z M 112.96875 411.539062 L 112.753906 414.324219 L 109.96875 414.109375 Z M 117.683594 441.328125 C 114.253906 448.402344 100.539062 447.761719 93.25 448.1875 C 98.394531 441.972656 110.183594 441.972656 117.683594 441.328125 Z M 19.734375 507.773438 L 18.445312 507.558594 L 19.734375 496.628906 Z M 20.589844 513.347656 L 17.804688 513.132812 L 19.519531 510.558594 Z M 19.304688 488.269531 L 18.875 492.339844 L 17.375 492.339844 Z M 15.230469 428.039062 L 14.589844 434.898438 L 13.089844 434.898438 Z M 11.800781 313.800781 L 12.445312 320.660156 L 10.945312 320.660156 Z M 12.230469 322.160156 L 11.800781 326.230469 L 10.300781 326.230469 Z M 13.515625 334.804688 L 13.304688 348.523438 L 11.800781 348.523438 C 10.515625 343.378906 8.585938 337.804688 13.515625 334.804688 Z M 12.875 376.816406 C 13.945312 377.03125 12.875 377.457031 12.445312 377.242188 Z M 12.445312 451.402344 L 14.160156 448.832031 L 15.230469 451.832031 Z M 16.945312 555.785156 L 15.660156 555.785156 L 16.304688 550.210938 L 19.089844 550.425781 Z M 18.019531 547.640625 L 16.730469 547.640625 L 19.304688 538.210938 L 22.089844 538.421875 Z M 20.589844 524.277344 L 19.304688 524.277344 L 21.875 514.847656 Z M 31.734375 368.882812 L 34.523438 369.097656 L 34.308594 371.886719 Z M 35.164062 423.324219 L 36.238281 426.113281 L 33.449219 425.898438 Z M 34.09375 444.117188 L 37.308594 441.757812 L 36.878906 444.542969 Z M 37.308594 465.335938 L 36.023438 465.121094 L 37.953125 459.761719 Z M 36.664062 445.617188 L 37.953125 458.261719 C 34.523438 454.832031 34.523438 450.117188 36.664062 445.617188 Z M 72.671875 506.917969 L 72.246094 510.988281 L 70.746094 510.773438 Z M 71.386719 517.847656 L 72.03125 512.273438 L 72.671875 517.847656 Z M 84.246094 587.292969 L 85.960938 584.71875 L 87.035156 587.71875 Z M 110.609375 563.929688 L 109.324219 562.429688 C 113.613281 560.070312 117.46875 559.214844 120.257812 563.714844 Z M 130.757812 569.074219 L 125.1875 568.429688 L 130.972656 567.789062 Z M 131.402344 563.714844 C 128.1875 562 126.898438 560.285156 125.828125 564.359375 L 124.542969 564.144531 L 125.1875 558.570312 L 132.042969 558.140625 Z M 134.1875 563.929688 L 137.402344 558.785156 L 139.546875 564.574219 Z M 239.640625 240.070312 L 239.425781 241.355469 L 235.78125 236.855469 Z M 215.847656 241.570312 L 221.207031 243.5 L 220.992188 245 C 217.992188 245 214.777344 245.214844 215.847656 241.570312 Z M 202.773438 245.640625 L 210.0625 242.425781 L 202.5625 247.140625 Z M 185.199219 254.644531 L 185.199219 253.144531 L 203.417969 252.5 L 210.0625 254.644531 L 208.347656 258.503906 Z M 204.488281 264.71875 L 204.917969 264.289062 C 205.988281 264.503906 205.132812 265.144531 204.488281 264.71875 Z M 209.203125 274.148438 L 205.132812 273.71875 L 209.417969 272.863281 Z M 213.0625 266.21875 L 208.992188 265.789062 L 213.277344 264.933594 Z M 211.132812 258.929688 L 213.0625 255.074219 L 217.992188 259.789062 Z M 213.277344 251 C 214.992188 245.855469 219.921875 248.214844 224.851562 248.214844 C 225.707031 251 227.421875 253.359375 226.996094 255.285156 L 228.066406 255.5 L 226.78125 255.929688 C 226.566406 256.574219 225.921875 257.214844 224.851562 257.859375 L 225.066406 256.574219 L 226.78125 255.929688 C 226.78125 255.714844 226.78125 255.5 226.78125 255.285156 Z M 221.636719 311.65625 L 221.421875 301.796875 L 223.136719 311.65625 Z M 223.136719 274.363281 L 219.921875 265.789062 L 228.710938 273.71875 Z M 226.566406 328.804688 L 226.136719 320.445312 L 227.851562 329.019531 Z M 229.996094 275.003906 L 229.566406 279.078125 L 228.28125 278.863281 Z M 228.496094 287.4375 L 228.710938 284.652344 L 231.496094 284.867188 Z M 227.421875 260.859375 L 231.925781 258.503906 L 232.78125 262.789062 Z M 232.996094 297.726562 L 237.28125 296.867188 L 237.925781 307.585938 L 238.140625 312.300781 Z M 237.496094 245.425781 L 237.710938 242.640625 L 240.496094 242.855469 Z M 237.496094 245.425781 " fill-opacity="1" fill-rule="nonzero"/></svg>