<svg xmlns="http://www.w3.org/2000/svg" xmlns:xlink="http://www.w3.org/1999/xlink" width="100" zoomAndPan="magnify" viewBox="0 0 75 74.999997" height="100" preserveAspectRatio="xMidYMid meet" version="1.0"><defs><clipPath id="ab37dff140"><path d="M 0 32 L 75 32 L 75 43.125 L 0 43.125 Z M 0 32 " clip-rule="nonzero"/></clipPath></defs><g clip-path="url(#ab37dff140)"><path fill="#5a639c" d="M 7.671875 35.042969 C 15.726562 34.332031 23.804688 33.742188 31.894531 33.65625 C 39.941406 33.574219 48.003906 33.945312 55.96875 35.121094 C 60.472656 35.789062 64.898438 36.738281 69.335938 37.742188 C 69.40625 37.222656 69.476562 36.699219 69.546875 36.179688 C 65.011719 35.714844 60.503906 35.113281 55.957031 34.773438 C 51.410156 34.433594 46.851562 34.261719 42.292969 34.226562 C 33.222656 34.148438 24.128906 34.679688 15.140625 35.902344 C 10.296875 36.5625 5.347656 37.375 0.765625 39.148438 C 0.328125 39.316406 0.0195312 39.683594 0.09375 40.175781 C 0.15625 40.585938 0.546875 41.046875 1.011719 40.988281 C 5.738281 40.378906 10.523438 40.128906 15.28125 39.929688 C 19.972656 39.726562 24.667969 39.648438 29.363281 39.679688 C 38.882812 39.75 48.359375 40.34375 57.835938 41.265625 C 63.125 41.78125 68.410156 42.410156 73.695312 43.007812 C 74.746094 43.125 74.980469 41.367188 73.945312 41.160156 C 64.597656 39.265625 55.089844 38.371094 45.574219 37.886719 C 36.074219 37.40625 26.5625 37.417969 17.070312 37.910156 C 11.707031 38.191406 6.367188 38.71875 1.011719 39.117188 C 1.09375 39.726562 1.175781 40.34375 1.257812 40.957031 C 9.621094 38.234375 18.441406 37.199219 27.175781 36.484375 C 36.152344 35.75 45.171875 35.636719 54.164062 36.167969 C 59.222656 36.464844 64.34375 36.835938 69.332031 37.742188 C 70.328125 37.921875 70.746094 36.515625 69.753906 36.207031 C 65.914062 35.007812 61.910156 34.210938 57.9375 33.617188 C 53.910156 33.015625 49.847656 32.605469 45.78125 32.363281 C 37.675781 31.875 29.550781 31.988281 21.449219 32.414062 C 16.851562 32.652344 12.257812 32.992188 7.667969 33.386719 C 6.613281 33.472656 6.605469 35.132812 7.671875 35.042969 Z M 7.671875 35.042969 " fill-opacity="1" fill-rule="nonzero"/></g></svg>